<mxfile host="app.diagrams.net" modified="2021-06-09T14:01:30.116Z" agent="5.0 (Windows NT 10.0; Win64; x64) AppleWebKit/537.36 (KHTML, like Gecko) Chrome/91.0.4472.77 Safari/537.36" etag="jWdsDc2J8VM2Uqy7-KB1" version="14.6.13" type="github">
  <diagram id="EKL4vg79x4XxbePL_SkP" name="Page-1">
    <mxGraphModel dx="868" dy="492" grid="1" gridSize="10" guides="1" tooltips="1" connect="1" arrows="1" fold="1" page="1" pageScale="1" pageWidth="850" pageHeight="1100" math="0" shadow="0">
      <root>
        <mxCell id="0" />
        <mxCell id="1" parent="0" />
        <mxCell id="3ydo4JEFwbclypZjV5ED-22" value="" style="rounded=0;whiteSpace=wrap;html=1;fillColor=none;" vertex="1" parent="1">
          <mxGeometry x="520" y="130" width="230" height="350" as="geometry" />
        </mxCell>
        <mxCell id="3ydo4JEFwbclypZjV5ED-4" value="" style="edgeStyle=orthogonalEdgeStyle;rounded=0;orthogonalLoop=1;jettySize=auto;html=1;" edge="1" parent="1" source="3ydo4JEFwbclypZjV5ED-2">
          <mxGeometry relative="1" as="geometry">
            <mxPoint x="210" y="100" as="targetPoint" />
          </mxGeometry>
        </mxCell>
        <mxCell id="3ydo4JEFwbclypZjV5ED-2" value="" style="shape=image;html=1;verticalAlign=top;verticalLabelPosition=bottom;labelBackgroundColor=#ffffff;imageAspect=0;aspect=fixed;image=https://cdn3.iconfinder.com/data/icons/kicon-business/24/ticket-128.png" vertex="1" parent="1">
          <mxGeometry x="70" y="70" width="60" height="60" as="geometry" />
        </mxCell>
        <mxCell id="3ydo4JEFwbclypZjV5ED-9" value="" style="edgeStyle=orthogonalEdgeStyle;rounded=0;orthogonalLoop=1;jettySize=auto;html=1;" edge="1" parent="1">
          <mxGeometry relative="1" as="geometry">
            <mxPoint x="270" y="100" as="sourcePoint" />
            <mxPoint x="350" y="100" as="targetPoint" />
          </mxGeometry>
        </mxCell>
        <mxCell id="3ydo4JEFwbclypZjV5ED-5" value="" style="aspect=fixed;html=1;points=[];align=center;image;fontSize=12;image=img/lib/mscae/Azure_Boards.svg;" vertex="1" parent="1">
          <mxGeometry x="220" y="80" width="50" height="50" as="geometry" />
        </mxCell>
        <mxCell id="3ydo4JEFwbclypZjV5ED-6" value="Submit a ticket" style="text;html=1;align=center;verticalAlign=middle;resizable=0;points=[];autosize=1;strokeColor=none;" vertex="1" parent="1">
          <mxGeometry x="35" y="40" width="90" height="20" as="geometry" />
        </mxCell>
        <mxCell id="3ydo4JEFwbclypZjV5ED-7" value="Create issue in azure devops" style="text;html=1;align=center;verticalAlign=middle;resizable=0;points=[];autosize=1;strokeColor=none;" vertex="1" parent="1">
          <mxGeometry x="140" y="40" width="170" height="20" as="geometry" />
        </mxCell>
        <mxCell id="3ydo4JEFwbclypZjV5ED-12" value="" style="edgeStyle=orthogonalEdgeStyle;rounded=0;orthogonalLoop=1;jettySize=auto;html=1;" edge="1" parent="1" source="3ydo4JEFwbclypZjV5ED-10">
          <mxGeometry relative="1" as="geometry">
            <mxPoint x="480" y="100" as="targetPoint" />
          </mxGeometry>
        </mxCell>
        <mxCell id="3ydo4JEFwbclypZjV5ED-10" value="" style="html=1;verticalLabelPosition=bottom;align=center;labelBackgroundColor=#ffffff;verticalAlign=top;strokeWidth=2;strokeColor=#0080F0;shadow=0;dashed=0;shape=mxgraph.ios7.icons.user;" vertex="1" parent="1">
          <mxGeometry x="370" y="85" width="30" height="30" as="geometry" />
        </mxCell>
        <mxCell id="3ydo4JEFwbclypZjV5ED-15" value="" style="edgeStyle=orthogonalEdgeStyle;rounded=0;orthogonalLoop=1;jettySize=auto;html=1;" edge="1" parent="1" source="3ydo4JEFwbclypZjV5ED-13">
          <mxGeometry relative="1" as="geometry">
            <mxPoint x="600" y="100.875" as="targetPoint" />
          </mxGeometry>
        </mxCell>
        <mxCell id="3ydo4JEFwbclypZjV5ED-13" value="" style="html=1;verticalLabelPosition=bottom;align=center;labelBackgroundColor=#ffffff;verticalAlign=top;strokeWidth=2;strokeColor=#0080F0;shadow=0;dashed=0;shape=mxgraph.ios7.icons.mail;" vertex="1" parent="1">
          <mxGeometry x="490" y="91.75" width="30" height="18.25" as="geometry" />
        </mxCell>
        <mxCell id="3ydo4JEFwbclypZjV5ED-16" value="" style="shape=image;verticalLabelPosition=bottom;labelBackgroundColor=#ffffff;verticalAlign=top;aspect=fixed;imageAspect=0;image=data:image/png,iVBORw0KGgoAAAANSUhEUgAAAlgAAAE7CAYAAAAB7v+1AAAABGdBTUEAALGPC/xhBQAAAAFzUkdCAK7OHOkAAAAJcEhZcwAADsMAAA7DAcdvqGQAABwcSURBVHja7d0xbNTagoBhd5SUlJRpVqKkpKRM9W6SW0C36TYL90nZKtNlu5QptsjrUoLu2AESpLnFwlw9rUR1lRmnCF3KdJuW1XEGFkggk2Tm+Nj+Psnd6l3W49i/j4+PswwAAEjXr0X5YCkfPVrOx2sredn7anu1UpSDH21/K/66Z+8Bs7CSlycrRfnpiu24Ov/kZW+pGD0N5y17DqjVk5cf74aT0Up/vL6yd7QTTlLL+fhsihPaD7el16P79iwwk8A6j6ebno++DS/nJmCeQbWSl0tVTE13ZyiwgKYG1oVtOR9/CKPyzlPATKJquT9aXSnK4TyCSmABcwysuZ23PsfWSn+8YE8DU6se/e0d7dz2kZ/AAmoMrEGM89ZyUR6GR4nmkAI/9Mvvhw9jnZQEFtCGwPpqVOtsea/cDCP/9j5QCXdey0X5oq6wEljArNV1TlsuxqdhREtoQdfv8vrjxeqEUHNcCSxgpue287ebazufhfNqmKf1ZPDxjl8DunaHt1duphBWAgtoW2B92fLyRGiBk4/AAtpxjivK7aTOcXn5SmSBE4/AApp9ngtfj0jtPCeywElHYAHOdfOJLL8OtEy1vlWicSWwgK7cTIZ/m18IWiIsxTCvT9wILCC5G8pi9DTp850PS0M7pLDOlcACBNb/v11orSxouLDWVepxJbCATgXW+bbll4IGCx8mFVhAp857xfhx6ue88Hkd3zCEhmrK6JXAAmYp9Zd6jGJB0wOrxo83CyxAYBnFgvadYF6P7jclrgQWMEu/FuWDppz7wqd0/GLQpNGrlNeBEViAG8zPgfXBLwYNslyUh4meUIbhQ9Phri0M43/efEICmJVwPvn6/BK25f5odbkY76a4JmAYcfOrQQOkNjweTmrhrR4RBaRyjqxiy+ruwHWE0aEUJm+u7B3tePQHpCqcnxIJrYFfA5oQWDWv3L5cjE99CgJoipW8XKpuCmu8ITXCD40IrPFpfXFVHhq1AhoXWf3xQq1zV/vjRb8CJKzW+Vd5eWJNl45a++Nu9tufjxq1rb0zsZhkzp/h5R+/AKQ8etUfrfpCPPMPqncPst+Gm9mz4WH2fPip0duz4Vn2bPgie/7uafb3f7pB6Po5tKYpFuG/a+9DwsKnF7wFw9w8f7+YPX9/3Pio+nlw7Qgto1jWwwJqv/sKc75M0OzAiNXz4bDVYXVhVOu9mwbn0agT3e15SPvEcOiDpcx81CoER1fi6tttUM0vo1Nq+5Zhf7xg70OifOaGmXo2XOtoWH21vT/O1v50jHftXFrDiu/msUKqd131fH/LAnltHrnqfFx9eWR4mG0MPAbv1s3qdvTAKkZP7XlI0C+/Hz40uZ2ZCHOuuvtY8EeR5S2vLt2w1vGYsD9et+chxTuu/njR4njMZvRq+EFUXfq40PHeEU9efrxrPitwfsdVjJ7GPiGEk5A937a48mjwp/OxPCrszk1rUR5HfiN7116HFE8GedmLvXK7vd5CbVg8dL6PCtccJN1Qw3IN5rSCwLIwXjvj6r8fiqgplm6gG4G1V24KLCD+CJaTQQsD631PQE2xWem9E2qYduGcCkkGVuTXin07q4VMbp9ye+d1eoElsKAzgbV3tBP1ZLB3tGOvt20Ey9IM083D8hkdgSWwQGDNawRrr9y011skPPYST9N/EBqBJbBAYFlklCudf9BZPE23XMMrB4zAElggsAQWV/vtz0fCyZuECCxAYCGwBBYCCxBYCCyBhcASWCCwBJbAsgksgSWwQGAJLASWwEJgAQILgSWwEFgCCwSWwBJY19x+G25W//uxt2fvTwQWAgsQWLR0BKumT8s8f38ssBBYgMBCYAksBBYgsBBYAguBJbBAYAksBJbAQmABAguBJbAQWIDAQmAJLASWwAKBJbAQWAILgQUILASWwEJgAQILgSWwEFgCCwSWwBJYAktgCSyBBQJLYCGwBBYCCxBYCCyBhcASWCCwBJbAElgCS2AJLBBYAguBJbAQWIDAQmAJLAQWILAQWAILgSWwQGAJLASWwEJgAQILgSWwEFiAwEJgCSwElsACgSWwBJbAElgILEBgIbAEFgILEFgILIGFwBJYILAElsASWAJLYAksEFgCC4ElsBBYgMBCYAksBJbAAoElsASWwEJgCSwQWAILgSWwEFiAwEJgCSwEFiCwEFgCC4ElsEBgCSxiBdaz4WEVJbG3Z8MzgYXAAgQWLR3Bat3mQiiwBBYILIGFwBJYCCxAYCGwBBYCCxBYCCyBhcASWCCwBBYCS2AhsACBhcASWAgsQGDRJM/fLwinqbddB4zAElggsAQWV9sY3BFO025/bjtgBJbAAoElsJhyFGt4Kp6mWTj1vWNfYAksEFgCi2kD6/0rATXFFuarIbAEFggsgcV0gfXuqYC6cjutHqcisAQWCCyBxVT+/s97AurK7yruOFAElsACgSWwuOYo1nBXSP1kW3v3wEEisAQWCCyBxfVHsZ4Nz8TUpaNXLxwgAktggcASWNzMb8NNQXUhrs6q+ERgCSwQWAKLGzlfE2sgrL5ZmmHJgSGwBBYILIHF7az9cTd7/v5YXIVlGYabDgiBJbBAYAksZhRZf97Png8/WFQUgSWwQGAJLGY9khUmd3dxvavn7xcdAAJLYIHAEljMT5iD1JVHhmGtKxPaBZbAAgQWUYTJ7//+bjV7Phy2csQqhJV1rhBYgMCiNmGEJ8RWmKN0/ghxMM32L//5P5/q2i7+e95vVf9+3xZEYAECi0Yfp3EvWN9s9j4CCxBYCCyBhcACBBYILASWwAKBJbAQWCCwAIGFwBJYCCxAYIHAQmAJLBBYAguBBQILEFgILIGFwAIEFgJLYCGwBBYILIGFwEJgCSwQWAILgSWwEFiAwEJgCSwEFiCwBBYCC4ElsEBgCSwEFggsQGAhsAQWAgsQWCCwEFgCCwSWwEJggcACBBYCS2AhsACBBQILgSWwQGAJLAQWAktgAQILgSWwEFiAwEJgCSwStlyMHwssQGAhsAQWsxzBykePBBYQ7rZ2Y54MlvujVXsdgYXAmtE5tSgP7XVI88I1iHkyCPMT7HUEFq0NrNej+5GP0WN7HQSWwEJgIbBmO+3ixF6HBIXh5agng/540V5HYNFWT15+vOsYBbJw9xPzRPBrUT6w1xFYtPvGdXzqGAV3WlEvVuG/ac8jsGj58TqM/GRgwV6HhPzy++FDcwUQWAKLGR+v8Ze/WbLXISHL+Xgt8sVqaK8jsGj98dofr0ddqmGv3LTXIa2L1nbc9VrGu/Y6N/G34q97K8XR/87huHxn7zLzc2teLkUewXplr0NagXUceZ7Aur1OcjcDHq8wY+Flnsg3r6dPBh/v2POQgBo+5/Ap/Dftea4rrP7/5UKSj2d/ccrHZ2E+oj3NTI/byG8SulGALowI/OAi5g6LG1ykHodjJ8YLGGGBSHucmZ1jI090Xy7KF/Y61CyETuz1r3yQlGtfoPJyKUpcfRVZ1mljVsJXK6LfxFoGB2q/cPViPx4Mbyza88ziGJ3HY8KvL1Jh1MwvwK0DK/43CcO2Zc9DjX/0UUcFrODOdcKqP16IvkjjZdve0Y7RAG5rOR9/cK6F7owMvIo+elWUh/Y8P1M9tu6P16eN/3mOYn39yNC3M7llYK3V8LTggz0PseMq9urCHg8yRVhVF6H4cwKvdcESWtzo+H758W4dTwzCjbSXiqD9cWXiJRdUj6r3ys3bhFWUUazvQissGeF45lrn3qLcquXmQGTBnP+4w5yWGh4Lfj2Xxa/Al6g6X9NqmOpo1XW+ShDechRbXCX2oqPff57MGm8wY+efFqnpzsmES8dfOP7648XJ24CD6Isuxt2OQ3CFR50W0+UyYY2qem8IyhfhZtsvAbcZrTqfKPwhkQvPtl+l/ap5JsX4cRVTYbQ04nyq8Jgw9qPCaUcOwg1OtRaSC1vn1fX29mUvHIXj0o0vXB1U68mODOTliccnLYypwcc71WeW8rI3uSs/bvHI1Ey/FRdG8s732/ixv41unq8TPkatnwXf/MHWNHHdd7E6dOcdYuo85Hcnd7+JBoxHi6R/c5LQ0wVf2oAmBpZvYjVTmAxbLZmwd7ST8IWg7ZtHi+3/GzsTWCCwbvSH6tXghhw/56umb7fhrT6PFmmKar6iwAKBdd11glwA0lZNSO+PVlN+3GfzaLHtYn8IWmBBswPrOLya71dJ9665WrupGwHyx0pRfuzMKNf5B6p3faS6cSPI6wILBNaVc66MXCUcVl2aTzVZvTq8Ft/JNxzz8qRaId/8rWacw/NyKZE3wQUWpBRY1Z2z7wwmKUymrebudCsuvvk0yCSyujy/bBgeRflrSH4kayGBR/YCCxIKrIFPMCR7sn7Rucnge+Xmj16uqEZ0ujxR3seqkxeO3ckLJwILOhxYAxNr0zxBdzQkjqcJ/cniqCcdnxzvpihx1Yrv9dwgCSyoK7CqeQLugpM9KXfyUdje0c515v6F/9taP3ye0Dp15mgl/jedjx5FnpslsKDOEazqDz4ve9a5SugYSGeSbNyJ3Ld4Y65aTLXjo1lh/qT5WQmORJ/fBPRq+JsWWFBnYH1zgTO5vd4TcZizkfKnkub0ODBEwSwCv9p/9VzIUlvIdNcbwIn8Pdd7PAosSCKwvn5ry8m5lrvcLi29EP5/nddoSzViUJRbiX6+JNYjw0Nzs+qTyCN+gQVJBdY1Jhkjrq6/eGY1VyjKvL/qIhe+wdjRES1LrtR0Du+PF62DBQLLfA5xNfeRqvAmZJ3BXi1Sev4Zk26un5WXPX9pkc7fedmzkjsIrGk/1+FTHeLqeuszhbV/8nIpxc8sVa/Mh6UvujYhXmTFGLlaT+x3F1iQamB9jqxfi/KBX2a2Qny0JK4GIVhCiDdt7l712nw+Xjv/5l8HPpQtsuY5crWU4t+mXwYSDqzPbxiGO3+/zuw0cWX2yZIer8KdehsXpq1GFIvx4+oxT16+auXcLZE1h7/l6tugZwILBNaNv4Hm15nRCTms2dSQJRSq0Z3+aLWro5hh8c7J6MRWW+Zwmfg+2yhP+HGzwIKGBNancKH1C91OmOyd6vIBk0eWWyEojFhe+Rs29tFiOP68JTyj83W93xoUWHDdO+bw+GXynbWlaqG6RObqhBNzihOXG3W3W5THKZ2AJwshPraS/+1+1wY+Wjz2m98+tFNa96xa+60/Wv18/TB3FqZUTYruj1brvkCHuUN+jZsJIx4JrEG1bvQizo1S8o8W9452/FI3jOrwIfaab3wn35Jd9w1KmOWF+vzxRG13ye6Mri/ss7pGqapP0VidP4kRj9QeLVrr7sYBvVjzb7flbxrmdQdV4xpK4QLhF7ju6FXktwb3jnbMo2rA33B4tFiU23XdMHnsf8PACm/T1jRq5QYXWhxZTsoJj14JqyZftJdqeoy8Ze9Pb/KdQXEF3bgLruFxg/V0khq98nHfll3AI75N7Ibpmn/P4UsAFnyGjpyQwxuHNSw+as8nMnqVlz1vhLU0tOI9ijKKNaVa1r1yQws1/tHXsB6LEZNpRq/m98inWk8rL5fs5ZaHVjF6Ou85WkaxErphumR02g0U1GgyYfbUXVVCv0l4lXtOv0n43xW43RHiJ8JyD0axrrphquErDOFFCHse6h7Fir8KvJWCfzbyMKdHt2G0oY3fAmSqYN+d5yRqIyVXnGPD4ryRF4S116HFF/SfXeitxfLTk/GWtYto0o2UcL8icCN/5ipMqLfnIZ2LetyV3vvjRXs93m9hDTKy+a7D5DFhIjewk/OrVdohoYv6duQTwLq9fsnvED6VYiIy8xxNmc/yLB5J/cDkU2UeD4KTgFXdaw6sRTHLPM3tY8NGTX5087oV+e1B332FTpx0f7wN7fU4oWuFdi4cZ3OY9B7elLNnL9vXkT935YYK0hIeHcT+fIO9fsndbl72hCxzP87m8SjaxOrLAyv2Z8nMb4UET7qRJ7p7k/CS32D2b3qZfMyPRlZmOxdr72jHXr00sKK+QWjEGtxpWdH98hGsVx7bEOlY61nfbr4mC71GfYPQXoc0R7CiLoZn7ZxLf4PhjFfN90kcfhRYS7P+NIu9+q3qu5ACC4geWBa+vOw3OBaxxDDzF1t8yH3++9hvAA29uEf+ZI7AEli0a3TFXv1uH8dfZNQaWCCwyk9hSQJ7XWAhsASWwAKBNdvh7J69LrAQWG21XIwfRw4sLxqAwBJYAguB1fJ9XIyeCixAYAksBJbAEliAwBJYAguBJbAEFggsgSWwEFgCS2CBwBJYAguBJbAEFiCwBJbAQmAJLEBgIbAQWAJLYIHAElgCC4ElsAQWILAEFggsgQUIrBboFdm93tvsUe8gW+3tZ71ptrXX/3X6b6//8WlW23+8+dd/TPnfXgr/Vn8FAktgCSxAYKUZVW+ytY39bNg7yD41bdvYz842DrLd3n7mQ9wCS2AJLEBg1WtjkN0JI0Eb+9lpE8Pq0tg6yA57b7JFfxkNOf7eZIsbB9nOxkE22DjIPiR+bA0m22ZvP3sgsAQWCCyBdXHU6iB7uHGQnbQlrC65GL7o/ZHd9ReS4LH3JlsII45h5LHhx9hJ9ai6ZceZwAIE1s3jarXpF7drjGYt+CtJ5Lgrsnsb+9l2C4+zk/CIXWAJLBBYHQ6scCFoe1h9Nz/rVGQlcNztZw/aPGI6Ca1XbRjNEliAwLruRe5t9qgLI1eXjmR5XFhnXC115birjrXX2X2BJbBAYHUksKrHMy0fQbjiwrfrr0XURzrWjpsc9AILEFjXsPE22+pqXH3ZvF0YN65eZ/fb9IbqdR8XCiyBBQKr5YFVzX/p4KPBSy56H/zFRIz6xJddiBD0jZz4LrAAgTX9hW6n86NXRrHiRv2bbFHQZyfh0bzAElggsNoaWB19TPODi96Ov5o5H2+D7E7nR68+H29vsy2BJbBAYLUwsCbfFRRXXy3b4K/GMed4E1iAwLrdaEL4rIcL3ffbQ385czzmvFDx7dawD5ILLEBgTRdY5l+ZhxX7mDt2nDX3MaHAAgTWdBe7gYvcd9t+9tRfznyE9Z8cYxc/Ei2wBBYIrPYFltGEi4HV85czp8Dazx44xi4uPCqwBBYILIElsLh5YL3JHjvGLm4CS2CBwBJYAovbjGA9dYwJLIEFAktgCSwElsASWIDAElgCS2AJLIEFCCyBJbAElsASWAILBJbAElgILIElsEBgCSyBJbAElsASWIDAElgCS2AJLIElsEBgCSyBhcASWAILBJbAElgCS2AJLIEFCCyBJbAElsASWIDAElgCC4ElsAQWCCyBZRNYAktgCSxAYAksgSWwBJbAAgSWwBJYAssmsAQWCCyBJbAQWAJLYAECS2AJLIElsAQWILAElsASWAJLYAksEFgCS2AhsASWwAKBJbAElsASWAJLYAECS2AJLIElsASWwAKBJbAEFgJLYAksEFgCS2AJLIElsAQWILAElsASWAJLYAECS2AJLASWwBJYILAElsDylyOwBJbAAgSWwBJYAktgCSxAYAksgSWwbAJLYIHAElgCC4ElsAQWILAElsASWAJLYAECS2AJLIElsASWwAKBJbAEFgJLYAksEFgCS2AJLIElsAQWILAElsASWAJLYAECS2AJLASWwBJYILAElgucwBJYAktgAQJLYAksgSWwBBYgsJINrP1s6AJ3YVv1lyOwBJbAAgTWbUawdl3gvtveZIv+cuYWWEuOMYElsEBgdSGwNl3gLmwP/eXMKbDeZo8cX99uGwfZicASWCCwWhZYYbTGRe6ri91+drYxyO74y5nT8fY6u+84uxBYHwSWwAKB1bYRrEF2J0SFC92Xi90LfzVzPuYcb40+5gQWILCmveAdZC9c6L68QfjUX43jzTEnsACBdWu9N9ljF7rzuTAeD0Y43rxJ+O1WZPcElsACgdXCwDKq8OXtwTV/MRECq8jueUz4JeobFw8CCxBY1xtVeNDli17TJho33cbbbEtgVY8HHwgsgQUCq8WBVUXWQbba0TcHT3tvsgV/LRGPtT+yu+GRrMntzSOwAIFlZGHaR4OP/aXUMmr6tMPLgZyGJSsElsACgdWRwOpSZE1Grqza7liLv73NHjX1NxNYgMC6zejCQbba5jlZGwfZoceCCQRWWIftIHvlZQqBJbBAYHUisLLz5RsW2vZ2YTVqtZ/1LMeQWGTtZ9td+EpA+BZj038vgQUIrFmF1tvsUfgodBUnzR2xOq6+u9iwNYe6ZDJqetraEdMGvjEosACBFW9U63E1ArSfbYc1fFLewr+z9yZb9yiwQcdXWCOrRfOyJm9KrrbpNxJYgMCCpobW+UehV5s4PyuMwm0cZDvhcWAbH0ULLEBgQVuCaz97EB5VJ781dOkFgQWkH1hFuW2vAwJLYIHAmuW2d7RjrwMCS2CBwBJYANOdU/OyJ7CALDyyE1gAAgto8MlguRjv2utAa8+p8ee1CiwQWOWn5Xz8wV4H2ircRHoqANQRWGdPBh99hgVoZ2Dl4w9Rz6l75aa9DimeDPqj1cjD2Z9+LcoH9jzQNk9efrwb+3y6nI/X7HlI0Ep/vBj7hBBeY7bngbZZykePYp9PV/JyyZ6HBP3y++HD6HdcJroD7bxhXY9+w5qPHtnzkOId1+vR/RqGtM3DAlon9vyrKrBej+7b85DqXVfsIW3D2kDL1PI0IB+f2fOQ8l1XUR7Gf0xYvrDngRadR1/UEFiWvQEnBm8TAu200h8vhNEk81mBbwNrr9ysI7CMYgFNF+aT1jH3qtr643W/AKR895WXS7WcHIxiAU0/fxblVl3nT28QQuJC5NR1ggh3fn8r/rrnVwCaJizyWeO509vY0IgTRTE+retEsZKXJ+7EgKYIYbNSlNu1nTN95Bmao4YvwF86n8AdGZCyyYj/oPbzZV72/BrQAOHzNbWfMCajWVVovfx4168CJHOOPP8MziCJ82RRfgrrbvlVoAHCPKhUThyT149Pw6haCD8rFQOxhZGqMMcqvO1c6xSKy9/APvQLQYOs5OWrlE4i323Hk7vHalsuxo/9YsDMzn9FOUz4/OfxIDQ8sJaacoIJI1t+MWCGgfWpMec/o/rQLNWCeYkNhQssQGBZoBnacJLZasRJJh+v+bWArgWWxZmhocJk9zq+qWUOAiCwjF5Bu080edkTWIDAMnoFzFC1SnFYjyrlO7m9ctMvBXQmsNxUQjuEZRCSPtnsHe34lYCOBNbQVy6gXSecLYEFCKxaX+g5sywDtMzkg6ZDgQUIrHriyqLK0NbIevnx7nI+/pDgyceX5IHWBpa4gg4Iw9OTT9UILEBgiStglpEV1mARWIDAmu+HnFf64wW/CHRM9YX5NELr2K8BtCqw9o52wrQMvwZ0PLTCKJLAAgTW7UetPBIEvrGUjx7VFFoCC2h0YC0X49OV/njd3gd+Hlp5+SrmJFB7HWhiYIU3s5eK0VOLhwJTqz4W3R+txhjVsreBBgVWeBN7+5ffDx/a28CtYyvcpc1rUrw9DKQcWJM1BLd8pBmYm/BmzOfYmtXCpd62AZIJrLw8qaZJ5GUvTJnw+A+o74TWHy9UH5XOy154Pfm6jxV9nwuIFVjV+lTn56jB8l65Gc5b4fzlkR8AACTs/wC29Y+7YIClSAAAAABJRU5ErkJggg==;" vertex="1" parent="1">
          <mxGeometry x="600" y="80" width="75.24" height="39.5" as="geometry" />
        </mxCell>
        <mxCell id="3ydo4JEFwbclypZjV5ED-17" value="Assign ticket to user" style="text;html=1;align=center;verticalAlign=middle;resizable=0;points=[];autosize=1;strokeColor=none;" vertex="1" parent="1">
          <mxGeometry x="320" y="40" width="120" height="20" as="geometry" />
        </mxCell>
        <mxCell id="3ydo4JEFwbclypZjV5ED-18" value="Send a response" style="text;html=1;align=center;verticalAlign=middle;resizable=0;points=[];autosize=1;strokeColor=none;" vertex="1" parent="1">
          <mxGeometry x="440" y="40" width="110" height="20" as="geometry" />
        </mxCell>
        <mxCell id="3ydo4JEFwbclypZjV5ED-19" value="WhenAnEmailArrives-Monitor the email || inbox/sent" style="text;html=1;align=center;verticalAlign=middle;resizable=0;points=[];autosize=1;strokeColor=none;" vertex="1" parent="1">
          <mxGeometry x="495" y="20" width="290" height="20" as="geometry" />
        </mxCell>
        <mxCell id="3ydo4JEFwbclypZjV5ED-20" value="" style="html=1;verticalLabelPosition=bottom;align=center;labelBackgroundColor=#ffffff;verticalAlign=top;strokeWidth=2;strokeColor=#0080F0;shadow=0;dashed=0;shape=mxgraph.ios7.icons.mail;" vertex="1" parent="1">
          <mxGeometry x="780" y="91.75" width="30" height="18.25" as="geometry" />
        </mxCell>
        <mxCell id="3ydo4JEFwbclypZjV5ED-21" value="Receiver" style="text;html=1;align=center;verticalAlign=middle;resizable=0;points=[];autosize=1;strokeColor=none;" vertex="1" parent="1">
          <mxGeometry x="760" y="50" width="60" height="20" as="geometry" />
        </mxCell>
        <mxCell id="3ydo4JEFwbclypZjV5ED-25" value="" style="edgeStyle=orthogonalEdgeStyle;rounded=0;orthogonalLoop=1;jettySize=auto;html=1;" edge="1" parent="1" source="3ydo4JEFwbclypZjV5ED-23" target="3ydo4JEFwbclypZjV5ED-24">
          <mxGeometry relative="1" as="geometry" />
        </mxCell>
        <mxCell id="3ydo4JEFwbclypZjV5ED-23" value="Analyze email&lt;br&gt;-Subject with WorkItem-Id&lt;br&gt;-Body" style="rounded=1;whiteSpace=wrap;html=1;fillColor=none;" vertex="1" parent="1">
          <mxGeometry x="575" y="142.5" width="120" height="60" as="geometry" />
        </mxCell>
        <mxCell id="3ydo4JEFwbclypZjV5ED-27" value="" style="edgeStyle=orthogonalEdgeStyle;rounded=0;orthogonalLoop=1;jettySize=auto;html=1;" edge="1" parent="1" source="3ydo4JEFwbclypZjV5ED-24">
          <mxGeometry relative="1" as="geometry">
            <mxPoint x="480" y="298" as="targetPoint" />
          </mxGeometry>
        </mxCell>
        <mxCell id="3ydo4JEFwbclypZjV5ED-31" value="" style="edgeStyle=orthogonalEdgeStyle;rounded=0;orthogonalLoop=1;jettySize=auto;html=1;" edge="1" parent="1" source="3ydo4JEFwbclypZjV5ED-24" target="3ydo4JEFwbclypZjV5ED-30">
          <mxGeometry relative="1" as="geometry" />
        </mxCell>
        <mxCell id="3ydo4JEFwbclypZjV5ED-24" value="Update the work item - by taking Id from the subject" style="rounded=1;whiteSpace=wrap;html=1;fillColor=none;" vertex="1" parent="1">
          <mxGeometry x="575" y="267.5" width="120" height="60" as="geometry" />
        </mxCell>
        <mxCell id="3ydo4JEFwbclypZjV5ED-29" value="Extract work item id from subject" style="shape=process;whiteSpace=wrap;html=1;backgroundOutline=1;fillColor=none;" vertex="1" parent="1">
          <mxGeometry x="350" y="267.5" width="120" height="60" as="geometry" />
        </mxCell>
        <mxCell id="3ydo4JEFwbclypZjV5ED-33" value="" style="edgeStyle=orthogonalEdgeStyle;rounded=0;orthogonalLoop=1;jettySize=auto;html=1;" edge="1" parent="1" source="3ydo4JEFwbclypZjV5ED-30">
          <mxGeometry relative="1" as="geometry">
            <mxPoint x="495" y="437.5" as="targetPoint" />
          </mxGeometry>
        </mxCell>
        <mxCell id="3ydo4JEFwbclypZjV5ED-30" value="Update work item" style="rounded=1;whiteSpace=wrap;html=1;fillColor=none;" vertex="1" parent="1">
          <mxGeometry x="575" y="407.5" width="120" height="60" as="geometry" />
        </mxCell>
        <mxCell id="3ydo4JEFwbclypZjV5ED-38" value="" style="edgeStyle=orthogonalEdgeStyle;rounded=0;orthogonalLoop=1;jettySize=auto;html=1;" edge="1" parent="1" source="3ydo4JEFwbclypZjV5ED-34" target="3ydo4JEFwbclypZjV5ED-37">
          <mxGeometry relative="1" as="geometry" />
        </mxCell>
        <mxCell id="3ydo4JEFwbclypZjV5ED-34" value="" style="shape=image;verticalLabelPosition=bottom;labelBackgroundColor=#ffffff;verticalAlign=top;aspect=fixed;imageAspect=0;image=data:image/png,iVBORw0KGgoAAAANSUhEUgAAAlgAAAE7CAYAAAAB7v+1AAAAAXNSR0IArs4c6QAAAARnQU1BAACxjwv8YQUAAAAJcEhZcwAADsMAAA7DAcdvqGQAABiESURBVHhe7d1NiF1petjx3mkjEK46FREQCExMQxyjLBI62Vgr0zFmUt0BM7vSpu4t6EW07GyCIAstNZpkMjE4yJCPcUiwIAQUAuYcyKJxNiJk0UkMrpqPVnUGY4EDUcbJuMrnlN7T9fVW1f043+/vBw8N092lc8/cufc/T7116wOAIct2iwfZLH+ZzfN3W/Pi2Kw+5T18Xd7Lp7d3ijvh9gIAKbm3k9/a2i32hFXzU0bW/uZnxd1wqwGAFFRxVUbAYSwOTDNTbQXD7QYAUpDNi8exKDDNTbUZrEI23HIAYMpsrzqcveJ+uO0AwJTZXnU4AgsAps/2qrtxBgsAEpHNi89jMWCanTKu9n1UAwAkoPrYAB/J0P6c3OPd4qNw2wGAKdua5c9iQWCaneqMW7jlAMCU2V51NXkebjkAMHW2V+1P9cMDPr0dABJhe9XNbOwVD8MtBwCmzvaq/clmxZNwuwGAqbO96mKcuwKApNhetTvOXQFAYmyv2h/nrgAgMbZX7Y5zVwCQGNurtse5KwBIju1Ve+PcFQAkyPaq3XHuCgASZHvV3jh3BQAJsr1qc5y7AoAk2V61M85dAUCibK/aG+euACBRtlftjHNXAJAo26t2prynX4RbDACkxvaqjcnfbu0V98MtBgBSYnvV2myHWwwApMb2qoUp72m4vQBAajbmxYe2V81Ode7q3k5+K9xiACA12Sx/GYsEs+o4dwUASct2iwfxSDBrjHNXAJAy26uGx7krAEib7VWz49wVAGB71eg4dwUAybO9anycuwKA1NleNTjOXQEAtlfNjXNXAMAJ26umxrkrAKBke9XoOHcFANheNTbOXQEAFdurhmaWf+ncFQBwwvZq/al+KXb1y7HDLQUAUmZ71cyU9/FRuKUAQOpsr9afbJ6/CLcTAEid7VUD49wVAHCW7dV649wVAHCO7dX649wVAHCO7dV649wVAHCO7dWa49wVAHCR7dXq49wVAHCJ7dV649wVAHBJNs9fx8LB3DzOXQEAl5SRsH0xGsyC49wVABBje7XaOHcFAESVoWB7teI4dwUARNlerTbOXQEAUWUo2F6tMNks33fuCgCIsr1afqpzV1u7xUfhFgIAnCpjwfZqhcnmxeNwCwfjF7578FH2nYNHG88PPt/4zsHD2985uBP+FgDQJdur5af6pPtw+wZh83sHdzef77/Knh8cn53yPzvcfH7w7fCPAcDwVJuB929c+1+Wk28833829g1BGQu2V0tOde7q9k4xmP/ey+flg/L5+PZiXJ2ffQfxARie07g6P9WGYOM7B9vhHxsd26vlZmjnrhaLq3pEFgADclVcnZ0ysp6Ef3w0ymCwvVpyhnTuarm4qkdkATAAi8RVPWOLLNur5WZI565Wi6t6RBYAPVomruoZS2SVwWB7tcQM6dzVenFVj8gCoAerxFU9Y4gs26vFZ0jnrpqJq3pEFgAdWieu6hlyZJXRYHu1xAzl3FWzcVWPyAKgA03EVT1DjSzbq8VnKOeu2omrekQWAC1qMq7qGVpkldFge7XgDOXcVbtxVY/IAqAFbcRVPUOKLNurxWYo5666iat6RBYADWozruoZQmSV4WB7teAM4dxVt3FVj8gCoAFdxFU9fUeW7dViM4RzVxv/+ODD7uOqHpEFwBq6jKt6+oqsMhxsrxaYMq4Oh3DuavP5/uvY86e7EVkArKCPuKpn4/nB5+EyOnFvJ79le7XYbOwVD8Nt683Wdw8+jj1vuh+RBcAS+oyrajaf77+rvgUULqd11XmiWEyY85PNikH8MEL23f2nsedNPyOyAFhA33F1Ot28cZ1sr2b5YSwozNnJ83DLelc9N+LPmb5GZAFwjeHE1ckW63W4rFbZXt08VYBuflbcDbesd9U5vdhzpt8RWQBEDCmuqqm+TRgurTW2V4vNEM5dnTWcM1gXR2QBcMbQ4qqaLjZYtlc3z1DOXV1UPj9exZ43/Y/IAqA0xLg6me/uPw2X2Arbq0VmOOeuLur3c7BuGpEFkLShxtXm8/3Dze8dtHrmx/bq+hnauauY8vnbwye5LzoiCyBJA46rd9UZm3CZrbC9unmGdu7qKiILgMFIOa4qtlfXz1DPXV1FZAHQu9TjyvbqphnuuavriCwAepN6XFVsr66eMZy7uo7IAqBz4sr26qYZy7mr64gsADojrt6zvbp6xnbu6joiC4DWiav3bK+um3Geu7qOyAKgNeLqlO1VfMZ+7uo6IguAxomrU7ZX1852uE2TJLIAaIy4Os/26oqZ5c/CLZo0kQXA2sTVebZX8cnm+RfVvQm3afJEFgArE1eX2V7FJn+7tVfcD7coGSILgKWJq8tsr66cSZ+7uo7IAmBh4irO9ioyiZy7uo7IAuBG4irO9urypHbu6joiC4AriaurVZ9MHouMdCfNc1fXEVkAXCKurlZ9cGY2z9/FQyPZSfbc1XVEFgDfEFfXq84ZRQIj3XHu6loiCwBxdQPbq/Pj3NViRBZAwsTVzWyvzo5zV8sQWQAJElc3s726NM5dLUlkASREXC3G9urMOHe1MpEFkABxtRjbq9Nx7mp9IgtgwsTV4myv6nHuqikiC2CCxNXibK9OJ9stHoXbQgNEFsCEiKvl2F69nzIyveG2QGQBTIC4Wo7tVZhZ/qVzV+0RWQAjJq6WZ3t1srl6tzEvPgy3hJaILIARElfLs716P85ddUdkAYyIuFqN7ZVzV30QWQAjIK5WY3tVjnNXvRFZAAMmrlaX+vbKuav+iSyAARJXq7O9cu5qKEQWwICIq/XYXjl3NSQiC2AAxNV6kt9eOXc1SCILoEfian0pb6+cuxo2kQXQA3G1vtS3V85dDZ/IAuiQuGpG4tsrb44jIbIAOiCumpHtFg9i4ZHEOHc1OiILoEXiqjnZLH8ZjY+Jj3NX4yWyAFogrpqT9PZqt9gLt4ERElkADRJXzUp2e1U+7nALGDGRBdAAcdWsVLdXZVzt394p7oTbwMiJLIA1iKvmpbi9Ovkoit3io3ALmAiRBbACcdW8ZLdX8+JxuAVMjMgCWIK4akeS2yvnriZPZAEsQFy1I8XtlXNX6RBZANcQV+1JbXvl3FV6RBZAhLhqT5LbK+eukiSyAM4QV+1Kbnvl3FXSRBZASVy1K7XtlXNXVEQWkDRx1b6UtlfOXXGWyAKS9Cv/9n/9o/gLT78zqbhKbXs1z19ns+KJ6WnK51t46g3GkCPrw3/15j+HywRoxi//m6//YewFp++ZUlxVUjt7Zfqfzb38++HpNxhDjqxf+b2v/zBcJsB6/srv/OTvx15o+p7JxVWCPzloBjK7xV54Gg6GyAIm7d73frgbe4Hpe6YWVxXbK9PXVD9oEJ6GgyKygEkqX9wcaO+I7ZXpe8JTcXBEFjAp4qpbtlemz6l+mjM8FQdJZAGTIK66ZXtl+prqpzg39oqHW3vF/fB0HCyRBYyauOqe7ZXpY6q4GtsHvIosYJTEVfeqD9mMvfkZ0+ZUh9rHsLWKEVnAqIirflRbhNgboDFtzZjjqiaygFF4/2IVf7Hoc6YeV+Wb3fbFNz9j2pwpxFVtyJH1t37/T/4gXCaQsjJkXsdeJPqcqcdVxfbKdDv526nEVW2okXX3ewfHv/FH/+93w2UCKRritwZTiKvyDc/2ynQ4+dsh/t7BJgw1sv7Gf/zj4+03R4/DZQIpufc7B7fKmDmMvTj0NSnEVcX2ynQ3042r2lAj6+/8j5/96W/+9PhuuEwgFVXIxF4U+ppU4qp807O9Mh3N9OOqNsTI+tvF2+NPvz4a3C/TBlp27/s/+gexF4U+JpW4qthemS6mfJ69K/+axP+makOLrL/+7396/Mnh8fH2V8dJRC4Q/NK//Oo/xF4Uup6U4qp8w7O9Mq1PinFVG1Jk3f/tH50E1idvjj8Plwek4Bdf/PgPYy8KXU5KcVWxvTJtT8pxVRtSZP3dH/95GVlHPwiXBqTgr/7um/3YC0JXk1pclW96tlemi9kOT7mkDSGyqo9r2P7qqAqs1+GygBT8zf/0xz+MvSh0MX/pnxz8/P5v/ehb4VKSYHtl2p5st3gUnm6Uqsj6y//04Gex16Au5sN//eb9twjLCZcEpOBXv/jT/xJ7UWh7qv9X92v/7f8ef/Lm6NXOwfGtcDmTVr752V6ZVkdcXfbJ4dGLX/+ff3Z875/9MPpa1PZUn4X1PrCO3oZLAlLwa//1//zz2ItCm/NNXIX/V5dKZNlemTZHXF1WxVX9OtNXZP3qF//7m9e5cFlACj796ujbf+3ffR19YWhjLsVVPROPrPIN0PbKtDbZvPATahecjat6uo6s6icIv/XDn4c//+hZuDQgBdVns1QvOrEXh6bnyriqZ8KRZXtl2ppsVjwJTzOCWFzV02VkfbO9Kqd8rbVhhNRUYfPR7/9J9AWiqbkxruqZYGSVb4K2V6aVEVeXXRdX9XQRWWcPt5eva/upnDUFzvh7b44//NaPf/7uF1/8OPpCse4sHFf1TCyybK9MG5PN8qfhKUawSFzV02ZkVa95H//3n33zZ22/OfaxGZCqTw+Pnv7GH/3/46Yja+m4qmcikVW+EdpemcanjPYX4SlGsExc1dNGZF16zStfy8IlAimqYqZ8gXrdZGStHFf1TCCybK9M0yOuLlslruppMrIuv+Ydva2+QxAuE0jV9sHxnaYia+24qmfEkVW+GdpemUZHXF22TlzV00RkxeLKL3gGvtFEZDUWV/WMNLJsr0yTsznLfavpgibiqp51IktcAQtZJ7Iaj6t6RhZZ5Rui7ZVpbKq4ureTj/5MYpOajKt6VokscQUsZZXIai2u6hlRZNlemaZGXF3WRlzVs0xkiStgJctEVutxVc9IIiub5fuxN0tjlps8F1fntRlX9SwSWeIKWMsikdVZXNUzgsiq3hjjb5jGLDbVFvT2TnEnPKUodRFX9VwXWeIKaMR1kdV5XNUz8MiqPmE79qZpzCIjri7rMq7qiUWWuAIaFYus3uKqngFHVvVtna1Z/mXszdOY60ZcXdZHXNVzNrLEFdCKs5H1S//iq37jqp4BR1b1Jlm+Wf4g9iZqTGyqs3ubnxV3w1OIUp9xVU8VWfd/+0fiCmhPHVlnX3x6n5EcfOe8rVn+LBYZqc7JD0bsFffD7aE0hLiKj7gCWiCyWFe1pcnm+btYaKQ44uoycQUkSWSxDtur0ynj6lBcnSeugKSJLFaR7RYPYqGR5uRvq/sRbg0lcQVQElksK5vlL+OxkdqIq4vEFcAZIotF2V7VI64uElcAESKLRdhenXzO1buNveJhuCWUxBXANUQW17G9eh9X5V8/DreEkrgCWIDI4iqp/35GcXWZuAJYgsjiojIsts/GRqIjrs4QVwArEFmclc3z15HgSGay3eJRuBWUxBXAGkQWlTIwkt5eiavzxBVAA0QWKW+vxNV54gqgQSIrXWVkJLu9yubF43AbKIkrgBaIrPTc28lvnfyevUh8TH2yWfEk3AZK4gqgRSIrLdUGJxYfUx9xdZ64AuiAyEpDqtsrcXWeuALokMiavhS3V9k8fxEePiVxBdADkTVdKW6vxNV54gqgRyJrmqpvk8UiZKojrs4TVwADILKmZfOz4m4ZHNXv3IvGyNQmm+Uvw0OnJK4ABkRkTcfWLH8WC5EpzuYsf1V9OzQ89OSJK4ABElnjl9L2SlydJ64ABkxkjVsq2ytxdZ64AhgBkTVOqWyvysf4+vZOcSc87OSJK4AREVnjUx32jgXJlEZcnSeuAEZIZI1Htls8iAXJlEZcnSeuAEZMZI3D1LdX5ePbF1enxBXABIisYZv69qqKq6294n54uMkTVwATIrKGa8rbK3F1nrgCmCCRNTwbe8XDWJhMYcTVeeIKYMJE1rBUB79jcTL+yd9W3/oMDzN54gogASJrGMoQ2b4cJlMYcXWWuAJIiMjq3zS3V+LqLHEFkCCR1Z8yRia3vSqD8d3WbvFReIjJE1cACRNZ/Zja9uokrubFx+HhJU9cASCyOpbNi8cXA2XMI67OE1cAfENkdePeTn4rm+WHFyNlrCOuzhNXAFwisto3te3V5qz4dnhoyRNXAFxJZLVnctur3eJReGjJE1cA3EhktWNK2ytxdUpcAbAwkdWszc+Ku5PZXu0We+FhJU9cAbA0kdWcrVn+LBorI5tsVjwJDyl54gqAlYms9Z1sr97/tF00WsYy4uqUuAJgbSJrPVPYXomrU+IKgMaIrNVMYXu1uZd/Pzyc5IkrABonspY39u1VGYcvwkNJnrgCoDUia3HZbvEgFi1jGXF1SlwB0DqRtZhslr+MhcsYpoyrH4SHkTxxBUBnRNb1xry92pzlr6pPnQ8PJWniCoDOiayrjXV7Ja5OiSsAeiOyLhvr9kpcnRJXAPROZJ23Nc/zWMAMebJ5/lpcvSeuABgMkfVeGSvbF+Nl6FPF1e2d4k54CEkTVwAMjsj64IMqVmIRM9QRV6fEFQCDlXJklcEyru3VLP9SXL0nrgAYvCFG1qeHR0/D5bVmTNurbJbvb+0V98OlJ237zdHj2HOm/xFXAFwwvMg6ysOltaKMltFsr8TVqd/86fHdKmTiz5k+R1wBcIVhRdbRu+p6wqU1qvrpuzJaDmMxM7QRV+d98tXRXvz50ueIKwBuMKTI2v76+GG4rEZl8+JxLGaGN/nbjXnxYbhsSp9+ffT92HOlvxFXACxoKJH16U+OPgqX1JjxbK/yt9UHoIbLJhhWYIkrAJbUf2QdvQ6X0qhxbK/E1VWGc8BdXAGwot4i683R/vbXx42fOxrD9iqb5+/E1dWq50X5nHwXfd50NuIKgDV1HlktxVUlmxVPYlEzlKniqvzrx+FyucL2m+Mn0edOJyOuAGhIZ5HVYlxtflbcDQETjZu+R1wtp3w+9vBBo+IKgIa1HlktxlVla5Y/uxg1QxlxtZpuI0tcAdCS1iKr5bga+vaqnO1wqSypm8gSVwC0rPHIajmuKoPeXu0Wj8JlsqJ2I0tcAdCRxiKrg7ga8vZKXDWnncgSVwB0bO3I6iCuKtksfxmLm75HXDWv2cgSVwD0ZOXI6iqudosHsbjpe6qPiwiXSMOaiSxxBUDPlo6sjuKqMsTtlbhq33qRJa4AGIiFI6vLuBrg9kpcdWe1yBJXAAxMiKw8/sZVzdEXXcVVZXDbq1n+LFwaHVkussQVAANWvkk9Oh9aR3n1C3rD3+7Exl7xMBo5PU02z1+ES6Nji0WWuAKAG5VB8zoWOn2MuOrfp4dHT+NhVc3Rl+IKAG5QRs32xcjpa8TVcHz6k6OPPnlz9Ko6B1hG1btqs/rJm+PPw98GAK4zlO3V5ix/dW8nvxUuCwBgnMqwGcT2SlwBAJMxhO2VuAIAJiObF49jwdPllIH3hbgCACahippslh/GoqerqbZnt3eKO+GSAADGre/tlbgCACal7+2VuAIAJqfP7VUZdvtbe0Vnv/4HAKB1m58Vd/vaXokrAGCSql+gHIuftkdcAQCTdLK9mufvYgHU7uRvxRUAMEn9bK/yt9lu4RcDAwDT08/2SlwBABPW/fZKXAEAE1aFTjyC2pmwKfs4/PEAANOTzfKXFyOorRFXAMDkdbm9ElcAQBK63F6VI64AgGnrdHu1WzwKfywAwHRtzfM8FkNNj7gCAJJQhs/2xRBqY8QVAJCMbJ6/jgVRk5PNi8/DHwcAMG1l/LS+vcpmxZPwxwEATF/b2ytxBQAkpQygVrdX2Sx/Gv4oAIDpu7eT3yoD6DAWRk1MNs9fhD8KACAN2bx4HAujJkZcAQDJaXN7Ja4AgCS1tb3anOWvwh8BAJCOtrZXVVxVXzv8MQAA6ag+NiEWSOuMuAIAkrX5WXE3m+fvYpG0+uS5uAIAkrU1y5/FI2m1qT6k9PZOcSd8eQCAtDS9vRJXAEDymtxeiSsAIHlNbq+yWb5ffb3wpQEA0lRG0ctYLC07VVxt7RX3w5cFAEhTtls8iMXSsiOuAACCJrZX5dc4FFcAAKVmtlf52+rrhC8JAJC29bdX4goA4Bsbe8XDeDQtOuIKAOCc6rOq4uF081Qf6VAFWvhSAACUkbR9MZoWnfB5WR+HLwUAQGXV7ZW4AgCIKANppe2VuAIAuMLK26vd4lH4EgAA1LJ58TgWTzeNuAIAiLi3k986+cT1SEBdN+IKAOAKq2yvqn8n/OsAAJy1yvYqmxVPwr8OAMBFy26vxBUAwDVu7xR3ltleiSsAgBuU0bTw515l8/xF+NcAALjK1ix/FoupiyOuAAAWtDnLX8WC6uyIKwCAJWzN8i9jUVVNdTarnKfhHwUAYBFlQO3H4qr61mF1AD78YwAALOryBivPs93iQfjbAAAsq4qpk6ia5z/Y2Csehv8YAAAAAAAAAAAAAAAAAACAkfngg78AMBVZUaRTMykAAAAASUVORK5CYII=;" vertex="1" parent="1">
          <mxGeometry x="389.05" y="416.25" width="80.95" height="42.5" as="geometry" />
        </mxCell>
        <mxCell id="3ydo4JEFwbclypZjV5ED-41" value="" style="edgeStyle=orthogonalEdgeStyle;rounded=0;orthogonalLoop=1;jettySize=auto;html=1;" edge="1" parent="1" source="3ydo4JEFwbclypZjV5ED-37" target="3ydo4JEFwbclypZjV5ED-40">
          <mxGeometry relative="1" as="geometry" />
        </mxCell>
        <mxCell id="3ydo4JEFwbclypZjV5ED-37" value="Function(WorkItemId, comment)" style="shape=process;whiteSpace=wrap;html=1;backgroundOutline=1;verticalAlign=top;labelBackgroundColor=#ffffff;" vertex="1" parent="1">
          <mxGeometry x="344.52" y="530" width="170" height="70" as="geometry" />
        </mxCell>
        <mxCell id="3ydo4JEFwbclypZjV5ED-39" value="Function app" style="text;html=1;align=center;verticalAlign=middle;resizable=0;points=[];autosize=1;strokeColor=none;" vertex="1" parent="1">
          <mxGeometry x="390" y="387.5" width="80" height="20" as="geometry" />
        </mxCell>
        <mxCell id="3ydo4JEFwbclypZjV5ED-40" value="Create a comment&lt;br&gt;&amp;amp;&lt;br&gt;Link the comment to work item" style="shape=process;whiteSpace=wrap;html=1;backgroundOutline=1;verticalAlign=top;labelBackgroundColor=#ffffff;" vertex="1" parent="1">
          <mxGeometry x="344.52" y="680" width="170" height="70" as="geometry" />
        </mxCell>
      </root>
    </mxGraphModel>
  </diagram>
</mxfile>
